<?xml version="1.0" standalone="no"?>
<!DOCTYPE svg PUBLIC "-//W3C//DTD SVG 20010904//EN" "http://www.w3.org/TR/2001/REC-SVG-20010904/DTD/svg10.dtd">
<svg version="1.0" xmlns="http://www.w3.org/2000/svg" width="200.000000pt" height="200.000000pt"
    viewBox="0 0 200.000000 200.000000" preserveAspectRatio="xMidYMid meet">

    <g transform="translate(0.000000,200.000000) scale(0.100000,-0.100000)" fill="#0252cc" stroke="none">
        <path d="M895 1470 c-74 -12 -187 -46 -237 -71 -25 -13 -58 -19 -103 -19 l-65
0 0 -53 c0 -29 -5 -58 -12 -65 -8 -8 -54 -12 -140 -12 -142 0 -181 -10 -216
-55 -21 -26 -22 -38 -22 -199 0 -190 5 -208 60 -240 30 -18 58 -22 180 -26
l145 -5 3 -52 3 -51 72 -5 c49 -2 92 -12 133 -30 109 -47 179 -61 314 -61 139
1 218 16 334 64 50 22 87 30 128 30 l57 0 3 53 3 52 135 6 c143 6 173 13 205
49 18 20 20 39 23 204 3 175 2 183 -19 210 -35 45 -75 56 -202 56 -134 0 -147
7 -147 83 l0 47 -65 0 c-50 0 -77 6 -114 25 -110 55 -321 85 -456 65z m113
-144 c6 -14 23 -26 44 -30 l33 -7 -22 -16 c-17 -11 -23 -25 -23 -50 0 -30 -3
-34 -17 -28 -22 9 -41 9 -71 0 -21 -7 -22 -5 -16 19 5 21 1 33 -16 51 l-23 25
32 6 c21 4 37 16 43 30 6 13 14 24 18 24 4 0 12 -11 18 -24z m208 -96 c16 0
19 -16 4 -25 -5 -3 -10 -17 -10 -31 0 -21 -3 -23 -18 -15 -11 6 -24 6 -35 0
-14 -8 -17 -6 -17 15 0 14 -4 28 -10 31 -15 9 -12 25 5 25 8 0 20 9 27 19 12
20 12 20 26 0 7 -10 20 -19 28 -19z m-349 -20 c15 0 15 -2 -1 -19 -9 -10 -14
-25 -11 -33 5 -12 -2 -15 -34 -14 -35 1 -41 4 -41 23 0 12 -5 25 -11 29 -8 4
-2 12 15 21 14 7 26 19 26 25 0 7 9 2 20 -10 12 -12 28 -22 37 -22z m223 -121
c0 -5 -7 -42 -16 -82 -12 -51 -13 -72 -5 -75 19 -6 12 -30 -10 -37 -38 -12
-44 8 -30 92 7 43 17 86 22 96 10 18 39 24 39 6z m78 -11 c-4 -29 -38 -38 -38
-10 0 22 8 32 27 32 9 0 13 -8 11 -22z m117 2 c0 -8 -10 -16 -22 -18 -13 -2
-23 -10 -23 -18 0 -11 8 -13 34 -9 29 6 34 4 39 -17 4 -12 7 -36 8 -53 1 -28
2 -26 25 23 18 36 31 52 45 52 18 0 18 -2 5 -33 -34 -83 -99 -167 -128 -167
-24 0 -23 18 3 39 19 15 20 22 12 71 -7 47 -12 54 -28 52 -27 -5 -30 -12 -44
-93 -11 -57 -16 -69 -32 -69 -23 0 -24 14 -5 95 10 39 11 62 5 66 -11 6 31 77
54 91 19 13 52 5 52 -12z m-715 3 c0 -5 6 -47 14 -95 l13 -88 -24 0 c-16 0
-23 6 -23 20 0 16 -7 20 -30 20 -19 0 -33 -7 -40 -20 -9 -17 -50 -29 -50 -15
0 3 23 46 51 95 36 63 57 90 70 90 11 0 19 -3 19 -7z m995 -7 c11 -8 16 -19
12 -30 -7 -17 -37 -23 -37 -6 0 6 -13 10 -29 10 -51 0 -83 -79 -45 -111 13
-11 21 -11 44 3 15 9 33 12 40 8 33 -20 -52 -66 -94 -50 -31 12 -46 39 -46 85
0 75 98 133 155 91z m-895 -48 c0 -9 3 -9 12 0 14 14 68 16 68 3 0 -5 13 -5
29 2 57 21 74 -10 50 -95 -7 -28 -15 -38 -30 -38 -15 0 -19 5 -15 18 13 48 16
81 7 86 -16 10 -39 -21 -46 -64 -5 -31 -11 -40 -27 -40 -18 0 -19 4 -12 56 5
46 4 56 -7 52 -16 -5 -36 -41 -44 -80 -4 -19 -12 -28 -25 -28 -11 0 -20 2 -20
5 0 7 21 109 25 123 5 15 35 16 35 0z m329 -20 c14 -24 14 -30 -2 -63 -19 -40
-58 -61 -87 -45 -19 10 -30 -4 -30 -41 0 -12 -7 -19 -20 -19 -11 0 -20 6 -20
14 0 16 28 153 34 172 3 7 26 11 57 10 47 -1 55 -4 68 -28z m160 15 c0 -10 -6
-40 -12 -68 -10 -40 -17 -51 -34 -53 -15 -2 -21 1 -19 10 3 7 10 39 16 71 9
46 15 57 31 57 12 0 19 -7 18 -17z" />
        <path d="M522 1006 c-15 -34 -15 -36 2 -36 20 0 24 10 17 39 l-6 24 -13 -27z" />
        <path d="M916 995 c-34 -34 -6 -84 30 -54 17 14 15 60 -2 66 -7 2 -19 -3 -28
-12z" />
    </g>
</svg>